<mxfile host="app.diagrams.net" modified="2023-03-03T14:02:28.608Z" agent="5.0 (Windows NT 10.0; Win64; x64) AppleWebKit/537.36 (KHTML, like Gecko) Chrome/110.0.0.0 Safari/537.36" etag="HWiiu4g8UUnmE1n_3a-N" version="21.0.2" type="github">
  <diagram name="Page-1" id="e56a1550-8fbb-45ad-956c-1786394a9013">
    <mxGraphModel dx="840" dy="465" grid="1" gridSize="10" guides="1" tooltips="1" connect="1" arrows="1" fold="1" page="1" pageScale="1" pageWidth="1100" pageHeight="850" background="none" math="0" shadow="0">
      <root>
        <mxCell id="0" />
        <mxCell id="1" parent="0" />
        <mxCell id="pWjKHq5pREKSBnfmIH6U-14" value="Город" style="shape=table;startSize=30;container=1;collapsible=1;childLayout=tableLayout;fixedRows=1;rowLines=0;fontStyle=1;align=center;resizeLast=1;" parent="1" vertex="1">
          <mxGeometry x="750" y="320" width="180" height="90" as="geometry" />
        </mxCell>
        <mxCell id="pWjKHq5pREKSBnfmIH6U-18" value="" style="shape=tableRow;horizontal=0;startSize=0;swimlaneHead=0;swimlaneBody=0;fillColor=none;collapsible=0;dropTarget=0;points=[[0,0.5],[1,0.5]];portConstraint=eastwest;top=0;left=0;right=0;bottom=0;" parent="pWjKHq5pREKSBnfmIH6U-14" vertex="1">
          <mxGeometry y="30" width="180" height="30" as="geometry" />
        </mxCell>
        <mxCell id="pWjKHq5pREKSBnfmIH6U-19" value="" style="shape=partialRectangle;connectable=0;fillColor=none;top=0;left=0;bottom=0;right=0;editable=1;overflow=hidden;" parent="pWjKHq5pREKSBnfmIH6U-18" vertex="1">
          <mxGeometry width="30" height="30" as="geometry">
            <mxRectangle width="30" height="30" as="alternateBounds" />
          </mxGeometry>
        </mxCell>
        <mxCell id="pWjKHq5pREKSBnfmIH6U-20" value="Название" style="shape=partialRectangle;connectable=0;fillColor=none;top=0;left=0;bottom=0;right=0;align=left;spacingLeft=6;overflow=hidden;" parent="pWjKHq5pREKSBnfmIH6U-18" vertex="1">
          <mxGeometry x="30" width="150" height="30" as="geometry">
            <mxRectangle width="150" height="30" as="alternateBounds" />
          </mxGeometry>
        </mxCell>
        <mxCell id="pWjKHq5pREKSBnfmIH6U-21" value="" style="shape=tableRow;horizontal=0;startSize=0;swimlaneHead=0;swimlaneBody=0;fillColor=none;collapsible=0;dropTarget=0;points=[[0,0.5],[1,0.5]];portConstraint=eastwest;top=0;left=0;right=0;bottom=0;" parent="pWjKHq5pREKSBnfmIH6U-14" vertex="1">
          <mxGeometry y="60" width="180" height="30" as="geometry" />
        </mxCell>
        <mxCell id="pWjKHq5pREKSBnfmIH6U-22" value="" style="shape=partialRectangle;connectable=0;fillColor=none;top=0;left=0;bottom=0;right=0;editable=1;overflow=hidden;" parent="pWjKHq5pREKSBnfmIH6U-21" vertex="1">
          <mxGeometry width="30" height="30" as="geometry">
            <mxRectangle width="30" height="30" as="alternateBounds" />
          </mxGeometry>
        </mxCell>
        <mxCell id="pWjKHq5pREKSBnfmIH6U-23" value="Размер" style="shape=partialRectangle;connectable=0;fillColor=none;top=0;left=0;bottom=0;right=0;align=left;spacingLeft=6;overflow=hidden;" parent="pWjKHq5pREKSBnfmIH6U-21" vertex="1">
          <mxGeometry x="30" width="150" height="30" as="geometry">
            <mxRectangle width="150" height="30" as="alternateBounds" />
          </mxGeometry>
        </mxCell>
        <mxCell id="pWjKHq5pREKSBnfmIH6U-27" value="Машина" style="shape=table;startSize=30;container=1;collapsible=1;childLayout=tableLayout;fixedRows=1;rowLines=0;fontStyle=1;align=center;resizeLast=1;" parent="1" vertex="1">
          <mxGeometry x="400" y="5" width="189.9999999999999" height="120" as="geometry" />
        </mxCell>
        <mxCell id="pWjKHq5pREKSBnfmIH6U-31" value="" style="shape=tableRow;horizontal=0;startSize=0;swimlaneHead=0;swimlaneBody=0;fillColor=none;collapsible=0;dropTarget=0;points=[[0,0.5],[1,0.5]];portConstraint=eastwest;top=0;left=0;right=0;bottom=0;" parent="pWjKHq5pREKSBnfmIH6U-27" vertex="1">
          <mxGeometry y="30" width="189.9999999999999" height="30" as="geometry" />
        </mxCell>
        <mxCell id="pWjKHq5pREKSBnfmIH6U-32" value="" style="shape=partialRectangle;connectable=0;fillColor=none;top=0;left=0;bottom=0;right=0;editable=1;overflow=hidden;" parent="pWjKHq5pREKSBnfmIH6U-31" vertex="1">
          <mxGeometry width="30" height="30" as="geometry">
            <mxRectangle width="30" height="30" as="alternateBounds" />
          </mxGeometry>
        </mxCell>
        <mxCell id="pWjKHq5pREKSBnfmIH6U-33" value="Название" style="shape=partialRectangle;connectable=0;fillColor=none;top=0;left=0;bottom=0;right=0;align=left;spacingLeft=6;overflow=hidden;" parent="pWjKHq5pREKSBnfmIH6U-31" vertex="1">
          <mxGeometry x="30" width="159.9999999999999" height="30" as="geometry">
            <mxRectangle width="159.9999999999999" height="30" as="alternateBounds" />
          </mxGeometry>
        </mxCell>
        <mxCell id="pWjKHq5pREKSBnfmIH6U-37" value="" style="shape=tableRow;horizontal=0;startSize=0;swimlaneHead=0;swimlaneBody=0;fillColor=none;collapsible=0;dropTarget=0;points=[[0,0.5],[1,0.5]];portConstraint=eastwest;top=0;left=0;right=0;bottom=0;" parent="pWjKHq5pREKSBnfmIH6U-27" vertex="1">
          <mxGeometry y="60" width="189.9999999999999" height="30" as="geometry" />
        </mxCell>
        <mxCell id="pWjKHq5pREKSBnfmIH6U-38" value="" style="shape=partialRectangle;connectable=0;fillColor=none;top=0;left=0;bottom=0;right=0;editable=1;overflow=hidden;" parent="pWjKHq5pREKSBnfmIH6U-37" vertex="1">
          <mxGeometry width="30" height="30" as="geometry">
            <mxRectangle width="30" height="30" as="alternateBounds" />
          </mxGeometry>
        </mxCell>
        <mxCell id="pWjKHq5pREKSBnfmIH6U-39" value="Тип" style="shape=partialRectangle;connectable=0;fillColor=none;top=0;left=0;bottom=0;right=0;align=left;spacingLeft=6;overflow=hidden;" parent="pWjKHq5pREKSBnfmIH6U-37" vertex="1">
          <mxGeometry x="30" width="159.9999999999999" height="30" as="geometry">
            <mxRectangle width="159.9999999999999" height="30" as="alternateBounds" />
          </mxGeometry>
        </mxCell>
        <mxCell id="pWjKHq5pREKSBnfmIH6U-110" style="shape=tableRow;horizontal=0;startSize=0;swimlaneHead=0;swimlaneBody=0;fillColor=none;collapsible=0;dropTarget=0;points=[[0,0.5],[1,0.5]];portConstraint=eastwest;top=0;left=0;right=0;bottom=0;" parent="pWjKHq5pREKSBnfmIH6U-27" vertex="1">
          <mxGeometry y="90" width="189.9999999999999" height="30" as="geometry" />
        </mxCell>
        <mxCell id="pWjKHq5pREKSBnfmIH6U-111" style="shape=partialRectangle;connectable=0;fillColor=none;top=0;left=0;bottom=0;right=0;editable=1;overflow=hidden;" parent="pWjKHq5pREKSBnfmIH6U-110" vertex="1">
          <mxGeometry width="30" height="30" as="geometry">
            <mxRectangle width="30" height="30" as="alternateBounds" />
          </mxGeometry>
        </mxCell>
        <mxCell id="pWjKHq5pREKSBnfmIH6U-112" value="Скорость" style="shape=partialRectangle;connectable=0;fillColor=none;top=0;left=0;bottom=0;right=0;align=left;spacingLeft=6;overflow=hidden;" parent="pWjKHq5pREKSBnfmIH6U-110" vertex="1">
          <mxGeometry x="30" width="159.9999999999999" height="30" as="geometry">
            <mxRectangle width="159.9999999999999" height="30" as="alternateBounds" />
          </mxGeometry>
        </mxCell>
        <mxCell id="pWjKHq5pREKSBnfmIH6U-40" value="Человек" style="shape=table;startSize=30;container=1;collapsible=1;childLayout=tableLayout;fixedRows=1;rowLines=0;fontStyle=1;align=center;resizeLast=1;" parent="1" vertex="1">
          <mxGeometry x="750" y="20" width="180" height="90" as="geometry" />
        </mxCell>
        <mxCell id="pWjKHq5pREKSBnfmIH6U-44" value="" style="shape=tableRow;horizontal=0;startSize=0;swimlaneHead=0;swimlaneBody=0;fillColor=none;collapsible=0;dropTarget=0;points=[[0,0.5],[1,0.5]];portConstraint=eastwest;top=0;left=0;right=0;bottom=0;" parent="pWjKHq5pREKSBnfmIH6U-40" vertex="1">
          <mxGeometry y="30" width="180" height="30" as="geometry" />
        </mxCell>
        <mxCell id="pWjKHq5pREKSBnfmIH6U-45" value="" style="shape=partialRectangle;connectable=0;fillColor=none;top=0;left=0;bottom=0;right=0;editable=1;overflow=hidden;" parent="pWjKHq5pREKSBnfmIH6U-44" vertex="1">
          <mxGeometry width="30" height="30" as="geometry">
            <mxRectangle width="30" height="30" as="alternateBounds" />
          </mxGeometry>
        </mxCell>
        <mxCell id="pWjKHq5pREKSBnfmIH6U-46" value="Имя" style="shape=partialRectangle;connectable=0;fillColor=none;top=0;left=0;bottom=0;right=0;align=left;spacingLeft=6;overflow=hidden;" parent="pWjKHq5pREKSBnfmIH6U-44" vertex="1">
          <mxGeometry x="30" width="150" height="30" as="geometry">
            <mxRectangle width="150" height="30" as="alternateBounds" />
          </mxGeometry>
        </mxCell>
        <mxCell id="pWjKHq5pREKSBnfmIH6U-47" value="" style="shape=tableRow;horizontal=0;startSize=0;swimlaneHead=0;swimlaneBody=0;fillColor=none;collapsible=0;dropTarget=0;points=[[0,0.5],[1,0.5]];portConstraint=eastwest;top=0;left=0;right=0;bottom=0;" parent="pWjKHq5pREKSBnfmIH6U-40" vertex="1">
          <mxGeometry y="60" width="180" height="30" as="geometry" />
        </mxCell>
        <mxCell id="pWjKHq5pREKSBnfmIH6U-48" value="" style="shape=partialRectangle;connectable=0;fillColor=none;top=0;left=0;bottom=0;right=0;editable=1;overflow=hidden;" parent="pWjKHq5pREKSBnfmIH6U-47" vertex="1">
          <mxGeometry width="30" height="30" as="geometry">
            <mxRectangle width="30" height="30" as="alternateBounds" />
          </mxGeometry>
        </mxCell>
        <mxCell id="pWjKHq5pREKSBnfmIH6U-49" value="Настроение" style="shape=partialRectangle;connectable=0;fillColor=none;top=0;left=0;bottom=0;right=0;align=left;spacingLeft=6;overflow=hidden;" parent="pWjKHq5pREKSBnfmIH6U-47" vertex="1">
          <mxGeometry x="30" width="150" height="30" as="geometry">
            <mxRectangle width="150" height="30" as="alternateBounds" />
          </mxGeometry>
        </mxCell>
        <mxCell id="pWjKHq5pREKSBnfmIH6U-53" value="Мысль" style="shape=table;startSize=30;container=1;collapsible=1;childLayout=tableLayout;fixedRows=1;rowLines=0;fontStyle=1;align=center;resizeLast=1;" parent="1" vertex="1">
          <mxGeometry x="680" y="150" width="180" height="90" as="geometry" />
        </mxCell>
        <mxCell id="pWjKHq5pREKSBnfmIH6U-60" value="" style="shape=tableRow;horizontal=0;startSize=0;swimlaneHead=0;swimlaneBody=0;fillColor=none;collapsible=0;dropTarget=0;points=[[0,0.5],[1,0.5]];portConstraint=eastwest;top=0;left=0;right=0;bottom=0;" parent="pWjKHq5pREKSBnfmIH6U-53" vertex="1">
          <mxGeometry y="30" width="180" height="30" as="geometry" />
        </mxCell>
        <mxCell id="pWjKHq5pREKSBnfmIH6U-61" value="" style="shape=partialRectangle;connectable=0;fillColor=none;top=0;left=0;bottom=0;right=0;editable=1;overflow=hidden;" parent="pWjKHq5pREKSBnfmIH6U-60" vertex="1">
          <mxGeometry width="30" height="30" as="geometry">
            <mxRectangle width="30" height="30" as="alternateBounds" />
          </mxGeometry>
        </mxCell>
        <mxCell id="pWjKHq5pREKSBnfmIH6U-62" value="Текст мысли" style="shape=partialRectangle;connectable=0;fillColor=none;top=0;left=0;bottom=0;right=0;align=left;spacingLeft=6;overflow=hidden;" parent="pWjKHq5pREKSBnfmIH6U-60" vertex="1">
          <mxGeometry x="30" width="150" height="30" as="geometry">
            <mxRectangle width="150" height="30" as="alternateBounds" />
          </mxGeometry>
        </mxCell>
        <mxCell id="pWjKHq5pREKSBnfmIH6U-63" value="" style="shape=tableRow;horizontal=0;startSize=0;swimlaneHead=0;swimlaneBody=0;fillColor=none;collapsible=0;dropTarget=0;points=[[0,0.5],[1,0.5]];portConstraint=eastwest;top=0;left=0;right=0;bottom=0;" parent="pWjKHq5pREKSBnfmIH6U-53" vertex="1">
          <mxGeometry y="60" width="180" height="30" as="geometry" />
        </mxCell>
        <mxCell id="pWjKHq5pREKSBnfmIH6U-64" value="" style="shape=partialRectangle;connectable=0;fillColor=none;top=0;left=0;bottom=0;right=0;editable=1;overflow=hidden;" parent="pWjKHq5pREKSBnfmIH6U-63" vertex="1">
          <mxGeometry width="30" height="30" as="geometry">
            <mxRectangle width="30" height="30" as="alternateBounds" />
          </mxGeometry>
        </mxCell>
        <mxCell id="pWjKHq5pREKSBnfmIH6U-65" value="Вопрос" style="shape=partialRectangle;connectable=0;fillColor=none;top=0;left=0;bottom=0;right=0;align=left;spacingLeft=6;overflow=hidden;" parent="pWjKHq5pREKSBnfmIH6U-63" vertex="1">
          <mxGeometry x="30" width="150" height="30" as="geometry">
            <mxRectangle width="150" height="30" as="alternateBounds" />
          </mxGeometry>
        </mxCell>
        <mxCell id="pWjKHq5pREKSBnfmIH6U-70" value="Дорога" style="shape=table;startSize=30;container=1;collapsible=1;childLayout=tableLayout;fixedRows=1;rowLines=0;fontStyle=1;align=center;resizeLast=1;" parent="1" vertex="1">
          <mxGeometry x="395" y="305" width="200" height="120" as="geometry" />
        </mxCell>
        <mxCell id="pWjKHq5pREKSBnfmIH6U-94" style="shape=tableRow;horizontal=0;startSize=0;swimlaneHead=0;swimlaneBody=0;fillColor=none;collapsible=0;dropTarget=0;points=[[0,0.5],[1,0.5]];portConstraint=eastwest;top=0;left=0;right=0;bottom=0;" parent="pWjKHq5pREKSBnfmIH6U-70" vertex="1">
          <mxGeometry y="30" width="200" height="30" as="geometry" />
        </mxCell>
        <mxCell id="pWjKHq5pREKSBnfmIH6U-95" style="shape=partialRectangle;connectable=0;fillColor=none;top=0;left=0;bottom=0;right=0;editable=1;overflow=hidden;" parent="pWjKHq5pREKSBnfmIH6U-94" vertex="1">
          <mxGeometry width="60" height="30" as="geometry">
            <mxRectangle width="60" height="30" as="alternateBounds" />
          </mxGeometry>
        </mxCell>
        <mxCell id="pWjKHq5pREKSBnfmIH6U-96" value="Название" style="shape=partialRectangle;connectable=0;fillColor=none;top=0;left=0;bottom=0;right=0;align=left;spacingLeft=6;overflow=hidden;" parent="pWjKHq5pREKSBnfmIH6U-94" vertex="1">
          <mxGeometry x="60" width="140" height="30" as="geometry">
            <mxRectangle width="140" height="30" as="alternateBounds" />
          </mxGeometry>
        </mxCell>
        <mxCell id="pWjKHq5pREKSBnfmIH6U-74" value="" style="shape=tableRow;horizontal=0;startSize=0;swimlaneHead=0;swimlaneBody=0;fillColor=none;collapsible=0;dropTarget=0;points=[[0,0.5],[1,0.5]];portConstraint=eastwest;top=0;left=0;right=0;bottom=0;" parent="pWjKHq5pREKSBnfmIH6U-70" vertex="1">
          <mxGeometry y="60" width="200" height="30" as="geometry" />
        </mxCell>
        <mxCell id="pWjKHq5pREKSBnfmIH6U-75" value="" style="shape=partialRectangle;connectable=0;fillColor=none;top=0;left=0;bottom=0;right=0;editable=1;overflow=hidden;" parent="pWjKHq5pREKSBnfmIH6U-74" vertex="1">
          <mxGeometry width="60" height="30" as="geometry">
            <mxRectangle width="60" height="30" as="alternateBounds" />
          </mxGeometry>
        </mxCell>
        <mxCell id="pWjKHq5pREKSBnfmIH6U-76" value="Протяженность" style="shape=partialRectangle;connectable=0;fillColor=none;top=0;left=0;bottom=0;right=0;align=left;spacingLeft=6;overflow=hidden;" parent="pWjKHq5pREKSBnfmIH6U-74" vertex="1">
          <mxGeometry x="60" width="140" height="30" as="geometry">
            <mxRectangle width="140" height="30" as="alternateBounds" />
          </mxGeometry>
        </mxCell>
        <mxCell id="pWjKHq5pREKSBnfmIH6U-77" value="" style="shape=tableRow;horizontal=0;startSize=0;swimlaneHead=0;swimlaneBody=0;fillColor=none;collapsible=0;dropTarget=0;points=[[0,0.5],[1,0.5]];portConstraint=eastwest;top=0;left=0;right=0;bottom=0;" parent="pWjKHq5pREKSBnfmIH6U-70" vertex="1">
          <mxGeometry y="90" width="200" height="30" as="geometry" />
        </mxCell>
        <mxCell id="pWjKHq5pREKSBnfmIH6U-78" value="" style="shape=partialRectangle;connectable=0;fillColor=none;top=0;left=0;bottom=0;right=0;editable=1;overflow=hidden;" parent="pWjKHq5pREKSBnfmIH6U-77" vertex="1">
          <mxGeometry width="60" height="30" as="geometry">
            <mxRectangle width="60" height="30" as="alternateBounds" />
          </mxGeometry>
        </mxCell>
        <mxCell id="pWjKHq5pREKSBnfmIH6U-79" value="Тип" style="shape=partialRectangle;connectable=0;fillColor=none;top=0;left=0;bottom=0;right=0;align=left;spacingLeft=6;overflow=hidden;" parent="pWjKHq5pREKSBnfmIH6U-77" vertex="1">
          <mxGeometry x="60" width="140" height="30" as="geometry">
            <mxRectangle width="140" height="30" as="alternateBounds" />
          </mxGeometry>
        </mxCell>
        <mxCell id="pWjKHq5pREKSBnfmIH6U-83" value="" style="edgeStyle=entityRelationEdgeStyle;fontSize=12;html=1;endArrow=ERoneToMany;startArrow=ERmandOne;rounded=0;startFill=0;endFill=0;" parent="1" source="pWjKHq5pREKSBnfmIH6U-14" target="pWjKHq5pREKSBnfmIH6U-40" edge="1">
          <mxGeometry width="100" height="100" relative="1" as="geometry">
            <mxPoint x="870" y="295" as="sourcePoint" />
            <mxPoint x="740" y="460" as="targetPoint" />
          </mxGeometry>
        </mxCell>
        <mxCell id="pWjKHq5pREKSBnfmIH6U-104" style="edgeStyle=orthogonalEdgeStyle;rounded=0;jumpStyle=none;orthogonalLoop=1;jettySize=auto;html=1;startArrow=ERzeroToOne;startFill=0;endArrow=ERoneToMany;endFill=0;" parent="1" source="pWjKHq5pREKSBnfmIH6U-70" target="pWjKHq5pREKSBnfmIH6U-27" edge="1">
          <mxGeometry relative="1" as="geometry">
            <mxPoint x="590" y="295" as="sourcePoint" />
          </mxGeometry>
        </mxCell>
        <mxCell id="pWjKHq5pREKSBnfmIH6U-105" style="edgeStyle=orthogonalEdgeStyle;rounded=0;jumpStyle=none;orthogonalLoop=1;jettySize=auto;html=1;startArrow=ERoneToMany;startFill=0;endArrow=ERzeroToMany;endFill=0;" parent="1" source="pWjKHq5pREKSBnfmIH6U-70" target="pWjKHq5pREKSBnfmIH6U-14" edge="1">
          <mxGeometry relative="1" as="geometry">
            <mxPoint x="590" y="295" as="sourcePoint" />
            <mxPoint x="690" y="295" as="targetPoint" />
          </mxGeometry>
        </mxCell>
        <mxCell id="pWjKHq5pREKSBnfmIH6U-107" style="edgeStyle=orthogonalEdgeStyle;rounded=0;jumpStyle=none;orthogonalLoop=1;jettySize=auto;html=1;startArrow=ERoneToMany;startFill=0;endArrow=ERmandOne;endFill=0;" parent="1" source="pWjKHq5pREKSBnfmIH6U-53" target="pWjKHq5pREKSBnfmIH6U-40" edge="1">
          <mxGeometry relative="1" as="geometry">
            <mxPoint x="980" y="225" as="sourcePoint" />
            <mxPoint x="860" y="85" as="targetPoint" />
          </mxGeometry>
        </mxCell>
        <mxCell id="pWjKHq5pREKSBnfmIH6U-108" style="edgeStyle=orthogonalEdgeStyle;rounded=0;jumpStyle=none;orthogonalLoop=1;jettySize=auto;html=1;startArrow=ERzeroToOne;startFill=0;endArrow=ERzeroToMany;endFill=0;" parent="1" source="pWjKHq5pREKSBnfmIH6U-53" target="pWjKHq5pREKSBnfmIH6U-14" edge="1">
          <mxGeometry relative="1" as="geometry">
            <mxPoint x="980" y="225" as="sourcePoint" />
          </mxGeometry>
        </mxCell>
        <mxCell id="pWjKHq5pREKSBnfmIH6U-109" style="edgeStyle=orthogonalEdgeStyle;rounded=0;jumpStyle=none;orthogonalLoop=1;jettySize=auto;html=1;startArrow=ERoneToMany;startFill=0;endArrow=ERzeroToOne;endFill=0;" parent="1" source="pWjKHq5pREKSBnfmIH6U-27" target="pWjKHq5pREKSBnfmIH6U-40" edge="1">
          <mxGeometry relative="1" as="geometry">
            <mxPoint x="589.9999999999998" y="105" as="sourcePoint" />
            <mxPoint x="680" y="85" as="targetPoint" />
          </mxGeometry>
        </mxCell>
        <mxCell id="c6sAwi9QVTVZ_ExDH39v-1" style="edgeStyle=orthogonalEdgeStyle;rounded=0;orthogonalLoop=1;jettySize=auto;html=1;startArrow=ERzeroToOne;startFill=0;endArrow=ERzeroToMany;endFill=0;" edge="1" parent="1" source="pWjKHq5pREKSBnfmIH6U-53" target="pWjKHq5pREKSBnfmIH6U-53">
          <mxGeometry relative="1" as="geometry">
            <Array as="points">
              <mxPoint x="920" y="200" />
            </Array>
          </mxGeometry>
        </mxCell>
      </root>
    </mxGraphModel>
  </diagram>
</mxfile>
